<?xml version="1.0" encoding="UTF-8" standalone="no"?>
<svg xmlns:dc="http://purl.org/dc/elements/1.1/" xmlns:cc="http://creativecommons.org/ns#" xmlns:rdf="http://www.w3.org/1999/02/22-rdf-syntax-ns#" xmlns:svg="http://www.w3.org/2000/svg" xmlns="http://www.w3.org/2000/svg" xmlns:sodipodi="http://sodipodi.sourceforge.net/DTD/sodipodi-0.dtd" xmlns:inkscape="http://www.inkscape.org/namespaces/inkscape" width="32mm" height="32mm" viewBox="0 0 32 32" id="svg8">
  <defs id="defs2"/>
  
  <metadata id="metadata5">
    
  </metadata>
  <g id="layer1" transform="translate(-51.518167,-134.96659)">
    <path id="path83" d="m 51.907747,158.93003 v -3.36977 l 2.4474,-0.76164 c 2.165,-0.67376 2.82901,-0.75991 5.75469,-0.74666 2.12588,0.01 5.02824,0.2668 8.12499,0.71994 6.93139,1.01423 10.41274,0.86479 13.69696,-0.58798 l 1.1968,-0.5294 v 3.50506 3.50506 l -1.7688,0.59058 c -3.9231,1.30988 -6.39595,1.33277 -14.50308,0.13425 -5.77967,-0.85444 -9.78535,-0.78022 -12.89844,0.239 l -2.05052,0.67134 z m 0.004,-13.93811 -0.004,-3.47347 1.52136,-0.56203 c 3.54803,-1.31072 7.1018,-1.41141 14.16703,-0.4014 6.2412,0.89221 10.64081,0.81437 13.61422,-0.24088 l 1.91823,-0.68077 v 3.37489 3.37489 l -1.65365,0.57418 c -3.84025,1.33342 -6.47679,1.36313 -14.52808,0.1637 -5.76176,-0.85834 -10.19166,-0.81168 -12.92231,0.13611 -0.94581,0.32829 -1.80719,0.73445 -1.91417,0.90257 -0.10699,0.16812 -0.19635,-1.25738 -0.19858,-3.16779 z" style="fill:#e9525f;stroke-width:0.26458332"/>
  </g>
</svg>
